<svg width="23" height="23" viewBox="0 0 23 23" fill="none" xmlns="http://www.w3.org/2000/svg">
<path d="M13.6063 18.9505C14.2126 19.5568 14.2188 20.5548 13.5085 21.0351C12.615 21.6393 11.6058 22.0628 10.5377 22.2753C8.95928 22.5893 7.32316 22.4281 5.83628 21.8122C4.3494 21.1964 3.07854 20.1534 2.18442 18.8152C1.29029 17.4771 0.813049 15.9038 0.813049 14.2944C0.813049 12.6851 1.29029 11.1118 2.18442 9.77366C3.07854 8.4355 4.3494 7.39254 5.83628 6.77665C7.32316 6.16077 8.95928 5.99962 10.5377 6.3136C11.6058 6.52604 12.615 6.94956 13.5085 7.55379C14.2188 8.03411 14.2126 9.03209 13.6063 9.63841C13 10.2447 12.0217 10.2173 11.2599 9.82375C10.8434 9.60859 10.3967 9.45152 9.93196 9.35907C8.95583 9.16491 7.94405 9.26456 7.02456 9.64543C6.10508 10.0263 5.31917 10.6713 4.76624 11.4988C4.21331 12.3263 3.91819 13.2992 3.91819 14.2944C3.91819 15.2897 4.21331 16.2626 4.76624 17.0901C5.31917 17.9176 6.10508 18.5626 7.02456 18.9435C7.94405 19.3243 8.95583 19.424 9.93196 19.2298C10.3967 19.1374 10.8434 18.9803 11.2599 18.7651C12.0217 18.3716 13 18.3442 13.6063 18.9505Z" fill="#201F2D"/>
<path d="M11.7443 13.8829C11.7443 14.682 11.4519 15.4128 10.9682 15.9741C10.3804 16.6564 9.50998 17.0884 8.5387 17.0884C6.76832 17.0884 5.33314 15.6532 5.33314 13.8829C5.33314 12.1125 6.76832 10.6773 8.5387 10.6773C9.94689 10.6773 11.143 11.5853 11.5735 12.8478C11.6842 13.1725 11.7443 13.5207 11.7443 13.8829Z" fill="#13E5B6"/>
<path d="M11.7443 13.8829C11.7443 14.682 11.4519 15.4128 10.9682 15.9741C10.3804 16.6564 9.50998 17.0884 8.5387 17.0884C6.76832 17.0884 5.33314 15.6532 5.33314 13.8829C5.33314 12.1125 6.76832 10.6773 8.5387 10.6773C9.94689 10.6773 11.143 11.5853 11.5735 12.8478C11.6842 13.1725 11.7443 13.5207 11.7443 13.8829Z" fill="#0B978E"/>
<path d="M12.2944 16.3573C13.8729 16.6713 15.509 16.5101 16.9959 15.8943C18.4828 15.2784 19.7536 14.2354 20.6478 12.8973C21.5419 11.5591 22.0191 9.98585 22.0191 8.37646C22.0191 6.76708 21.5419 5.19383 20.6478 3.85568C19.7536 2.51752 18.4828 1.47455 16.9959 0.858669C15.509 0.242784 13.8729 0.0816398 12.2944 0.395616C11.2264 0.608062 10.2172 1.03158 9.32366 1.63581C8.61336 2.11613 8.61956 3.11411 9.22588 3.72043C9.83219 4.32674 10.8104 4.29934 11.5722 3.90577C11.9887 3.69061 12.4355 3.53354 12.9002 3.44109C13.8763 3.24693 14.8881 3.34658 15.8076 3.72744C16.7271 4.10831 17.513 4.75328 18.0659 5.5808C18.6189 6.40832 18.914 7.38122 18.914 8.37646C18.914 9.37171 18.6189 10.3446 18.0659 11.1721C17.513 11.9996 16.7271 12.6446 15.8076 13.0255C14.8881 13.4063 13.8763 13.506 12.9002 13.3118C12.4359 13.2195 11.9896 13.0626 11.5735 12.8478C11.6842 13.1725 11.7443 13.5207 11.7443 13.8829C11.7443 14.682 11.4519 15.4128 10.9682 15.9741C11.3967 16.1385 11.8403 16.267 12.2944 16.3573Z" fill="#201F2D"/>
</svg>
