<svg width="73" height="26" viewBox="0 0 73 26" fill="none" xmlns="http://www.w3.org/2000/svg">
<g clip-path="url(#clip0_173_81)">
<path d="M72.8863 0H0.476318V26H72.8863V0Z" fill="#2C2C2C"/>
<g clip-path="url(#clip1_173_81)">
<path d="M43.2586 19.5649L37.7968 6.39679C37.7539 6.27673 37.7313 6.15045 37.7297 6.02304C37.7195 5.75362 37.8159 5.49094 37.9981 5.29123C38.0918 5.1959 38.2049 5.12158 38.3298 5.07326C38.4548 5.02494 38.5887 5.00373 38.7225 5.01106C38.9254 5.01369 39.1223 5.07889 39.2863 5.19765C39.4581 5.32459 39.5925 5.49509 39.6753 5.69132L44.8687 18.5793L50.062 5.69132C50.1449 5.49509 50.2792 5.32459 50.451 5.19765C50.615 5.07889 50.812 5.01369 51.0148 5.01106C51.1487 5.00373 51.2826 5.02494 51.4075 5.07326C51.5324 5.12158 51.6455 5.1959 51.7392 5.29123C51.9219 5.49136 52.0182 5.75473 52.0076 6.02472C52.0061 6.15213 51.9834 6.27841 51.9405 6.39847L46.4788 19.5666C46.3852 19.8562 46.2031 20.1096 45.9577 20.2913C45.7123 20.473 45.4159 20.574 45.11 20.5802H44.6268C44.3207 20.5738 44.0244 20.4724 43.779 20.2904C43.5337 20.1084 43.3517 19.8547 43.2586 19.5649Z" fill="white"/>
<path d="M54.3296 20.1777C54.2369 20.0849 54.1641 19.9744 54.1157 19.8529C54.0672 19.7313 54.0441 19.6012 54.0477 19.4706V6.13099C54.0428 5.8633 54.144 5.60443 54.3296 5.41038C54.4204 5.31399 54.5308 5.23798 54.6535 5.18743C54.7762 5.13689 54.9083 5.11298 55.0411 5.11732H63.9136C64.039 5.11384 64.1638 5.13704 64.2795 5.18536C64.3951 5.23368 64.4992 5.306 64.5845 5.39749C64.6754 5.48309 64.7475 5.58658 64.796 5.70139C64.8446 5.81619 64.8686 5.93979 64.8663 6.0643C64.8697 6.18709 64.8464 6.30916 64.7977 6.42207C64.7491 6.53498 64.6763 6.63603 64.5845 6.71823C64.4958 6.80433 64.3909 6.8722 64.2757 6.91797C64.1606 6.96374 64.0376 6.9865 63.9136 6.98495H56.0609V11.8415H63.1198C63.2452 11.838 63.3699 11.8612 63.4857 11.9096C63.6014 11.9579 63.7053 12.0302 63.7907 12.1217C63.8806 12.208 63.952 12.3117 64.0005 12.4263C64.0489 12.5409 64.0734 12.6641 64.0726 12.7885C64.0761 12.9112 64.0526 13.0333 64.004 13.1462C63.9553 13.2591 63.8825 13.3602 63.7907 13.4424C63.7019 13.5285 63.5971 13.5964 63.482 13.6421C63.3668 13.6879 63.2438 13.7106 63.1198 13.7091H56.0609V18.5914H63.9136C64.039 18.5879 64.1638 18.6111 64.2795 18.6594C64.3951 18.7077 64.4992 18.7801 64.5845 18.8716C64.6754 18.9571 64.7475 19.0606 64.796 19.1754C64.8446 19.2903 64.8686 19.4139 64.8663 19.5384C64.8697 19.6611 64.8464 19.7832 64.7977 19.8961C64.7491 20.009 64.6763 20.1101 64.5845 20.1923C64.4958 20.2784 64.3909 20.3463 64.2757 20.392C64.1606 20.4378 64.0376 20.4605 63.9136 20.459H55.0411C54.9088 20.4687 54.7761 20.4484 54.6528 20.3996C54.5296 20.3509 54.4191 20.275 54.3296 20.1777Z" fill="white"/>
<path d="M39.0308 19.191L33.5691 6.02285C33.4753 5.73355 33.293 5.48056 33.0476 5.29916C32.8022 5.11775 32.506 5.01697 32.2003 5.01086H31.7171C31.4112 5.01708 31.1148 5.11811 30.8694 5.29984C30.6241 5.48157 30.4419 5.73492 30.3483 6.02453L27.9732 11.7608H26.1748C25.9154 11.7622 25.667 11.8653 25.4836 12.0476C25.3002 12.23 25.1964 12.4768 25.195 12.7347V12.7481C25.1964 13.0059 25.3002 13.2528 25.4836 13.4351C25.667 13.6174 25.9154 13.7205 26.1748 13.722H27.1411L24.8731 19.1915C24.8302 19.3116 24.8075 19.4378 24.806 19.5653C24.7953 19.8352 24.8917 20.0986 25.0743 20.2988C25.168 20.3941 25.2811 20.4684 25.406 20.5167C25.531 20.565 25.6649 20.5863 25.7988 20.5789C26.0016 20.5763 26.1986 20.5111 26.3625 20.3923C26.5344 20.2654 26.6687 20.0949 26.7515 19.8987L29.2479 13.7225H30.9656C31.225 13.7211 31.4734 13.618 31.6569 13.4357C31.8403 13.2534 31.944 13.0065 31.9455 12.7487V12.7212C31.944 12.4634 31.8403 12.2165 31.6569 12.0342C31.4734 11.8519 31.225 11.7488 30.9656 11.7473H30.0399L31.9567 7.01186L37.1501 19.8998C37.2329 20.096 37.3673 20.2665 37.5391 20.3934C37.7031 20.5122 37.9 20.5774 38.1029 20.58C38.2368 20.5874 38.3707 20.5661 38.4956 20.5178C38.6205 20.4695 38.7336 20.3952 38.8273 20.2999C39.01 20.0997 39.1063 19.8364 39.0957 19.5664C39.1017 19.4381 39.0796 19.3099 39.0308 19.191Z" fill="white"/>
<path d="M22.7127 19.191L17.251 6.02285C17.1572 5.73355 16.9748 5.48056 16.7295 5.29916C16.4841 5.11775 16.1879 5.01697 15.8822 5.01086H15.399C15.0931 5.01708 14.7967 5.11811 14.5513 5.29984C14.3059 5.48157 14.1237 5.73492 14.0302 6.02453L11.6551 11.7608H9.85667C9.59727 11.7622 9.3489 11.8653 9.16547 12.0476C8.98204 12.23 8.87833 12.4768 8.87685 12.7347V12.7481C8.87833 13.0059 8.98204 13.2528 9.16547 13.4351C9.3489 13.6174 9.59727 13.7205 9.85667 13.722H10.823L8.55495 19.191C8.51204 19.311 8.48938 19.4373 8.48786 19.5647C8.47721 19.8347 8.57356 20.098 8.75621 20.2982C8.84989 20.3935 8.96299 20.4679 9.08794 20.5162C9.21288 20.5645 9.34678 20.5857 9.48064 20.5784C9.68348 20.5757 9.88048 20.5106 10.0444 20.3918C10.2162 20.2649 10.3506 20.0943 10.4334 19.8981L12.9297 13.722H14.6611C14.9204 13.7205 15.1688 13.6174 15.3523 13.4351C15.5357 13.2528 15.6394 13.0059 15.6409 12.7481V12.7212C15.6394 12.4634 15.5357 12.2165 15.3523 12.0342C15.1688 11.8519 14.9204 11.7488 14.6611 11.7473H13.7348L15.6403 7.01186L20.8337 19.8998C20.9165 20.096 21.0508 20.2665 21.2227 20.3934C21.3866 20.5122 21.5836 20.5774 21.7864 20.58C21.9203 20.5874 22.0542 20.5661 22.1792 20.5178C22.3041 20.4695 22.4172 20.3952 22.5109 20.2999C22.6935 20.0997 22.7899 19.8364 22.7792 19.5664C22.7848 19.4379 22.7621 19.3098 22.7127 19.191Z" fill="white"/>
</g>
</g>
<defs>
<clipPath id="clip0_173_81">
<rect width="72.41" height="26" fill="white" transform="translate(0.476318)"/>
</clipPath>
<clipPath id="clip1_173_81">
<rect width="56.94" height="16.25" fill="white" transform="translate(8.48718 4.45068)"/>
</clipPath>
</defs>
</svg>
