<svg width="83" height="84" viewBox="0 0 83 84" fill="none" xmlns="http://www.w3.org/2000/svg">
<g clip-path="url(#clip0_172_16)">
<path d="M47.2264 83.741C27.4715 83.741 7.12513 66.7735 1.78143 45.843C-3.56227 24.9125 8.1203 7.94495 27.8752 7.94495C47.63 7.94495 67.9765 24.9125 73.3202 45.843C78.6639 66.7735 66.9813 83.741 47.2264 83.741Z" fill="url(#paint0_linear_172_16)"/>
<path d="M55.1801 75.8552C35.4253 75.8552 15.0789 58.8876 9.73516 37.9571C4.39146 17.0266 16.074 0.059082 35.8289 0.059082C55.5838 0.059082 75.9302 17.0266 81.2739 37.9571C86.6176 58.8876 74.935 75.8552 55.1801 75.8552Z" fill="url(#paint1_linear_172_16)"/>
<path d="M52.7569 66.3909C37.9345 66.3909 22.6682 53.6599 18.6588 37.9555C14.6493 22.251 23.415 9.52002 38.2374 9.52002C53.0598 9.52002 68.3261 22.251 72.3356 37.9555C76.345 53.6599 67.5794 66.3909 52.7569 66.3909Z" fill="url(#paint2_linear_172_16)"/>
<mask id="mask0_172_16" style="mask-type:alpha" maskUnits="userSpaceOnUse" x="17" y="9" width="57" height="58">
<path d="M52.7415 66.3909C37.9191 66.3909 22.6528 53.6599 18.6434 37.9555C14.6339 22.251 23.3996 9.52002 38.222 9.52002C53.0445 9.52002 68.3107 22.251 72.3202 37.9555C76.3296 53.6599 67.564 66.3909 52.7415 66.3909Z" fill="url(#paint3_linear_172_16)"/>
</mask>
<g mask="url(#mask0_172_16)">
<path d="M51.1523 67.9688C36.3299 67.9688 21.0636 55.2378 17.0541 39.5333C13.0447 23.8289 21.8103 11.0979 36.6328 11.0979C51.4552 11.0979 66.7215 23.8289 70.7309 39.5333C74.7404 55.2378 65.9747 67.9688 51.1523 67.9688Z" fill="url(#paint4_linear_172_16)"/>
</g>
<g filter="url(#filter0_d_172_16)">
<path fill-rule="evenodd" clip-rule="evenodd" d="M60.7137 43.7791L54.5877 37.3994L49.4492 37.6278L55.621 44.0055L45.3447 44.4622C41.6423 44.6267 37.9235 41.7792 36.8066 38.1893C35.6897 34.5994 37.5605 31.5027 41.2617 31.3382L50.0953 30.9456L46.3239 27.0193L40.0054 27.3001C34.073 27.5638 30.5602 32.547 32.3769 38.3862C34.1935 44.2254 40.6663 48.7432 46.5946 48.4798L61.9636 47.7967M43.9284 34.842C44.2753 35.9572 43.6372 36.9019 42.5032 36.9523C41.3693 37.0027 40.1687 36.1397 39.8218 35.0245C39.4749 33.9094 40.113 32.9647 41.2469 32.9143C42.3809 32.8639 43.5814 33.7269 43.9284 34.842ZM44.2429 42.5443C45.3769 42.4939 46.0151 41.5492 45.6681 40.434C45.3212 39.3188 44.1206 38.4559 42.9867 38.5063C41.8527 38.5567 41.2146 39.5013 41.5615 40.6165C41.9085 41.7317 43.109 42.5947 44.2429 42.5443Z" fill="white"/>
<path fill-rule="evenodd" clip-rule="evenodd" d="M40.0054 27.3001L46.3239 27.0193L50.0953 30.9456L41.2617 31.3382C37.5605 31.5027 35.6897 34.5994 36.8066 38.1893C37.9235 41.7792 41.6423 44.6267 45.3447 44.4622L55.621 44.0055L49.4492 37.6278L54.5877 37.3994L60.7137 43.7791L61.9636 47.7967L46.5946 48.4798C40.6663 48.7432 34.1935 44.2254 32.3769 38.3862C30.5602 32.547 34.073 27.5638 40.0054 27.3001ZM43.9284 34.842C44.2753 35.9572 43.6372 36.9019 42.5032 36.9523C41.3693 37.0027 40.1687 36.1397 39.8218 35.0245C39.4749 33.9094 40.113 32.9647 41.2469 32.9143C42.3809 32.8639 43.5814 33.7269 43.9284 34.842ZM44.2429 42.5443C45.3769 42.4939 46.0151 41.5492 45.6681 40.434C45.3212 39.3188 44.1206 38.4559 42.9867 38.5063C41.8527 38.5567 41.2146 39.5013 41.5615 40.6165C41.9085 41.7317 43.109 42.5947 44.2429 42.5443Z" fill="white"/>
</g>
</g>
<defs>
<filter id="filter0_d_172_16" x="27.896" y="26.6171" width="34.0676" height="23.5312" filterUnits="userSpaceOnUse" color-interpolation-filters="sRGB">
<feFlood flood-opacity="0" result="BackgroundImageFix"/>
<feColorMatrix in="SourceAlpha" type="matrix" values="0 0 0 0 0 0 0 0 0 0 0 0 0 0 0 0 0 0 127 0" result="hardAlpha"/>
<feOffset dx="-1.18298" dy="1.18298"/>
<feComposite in2="hardAlpha" operator="out"/>
<feColorMatrix type="matrix" values="0 0 0 0 0 0 0 0 0 0 0 0 0 0 0 0 0 0 0.25 0"/>
<feBlend mode="normal" in2="BackgroundImageFix" result="effect1_dropShadow_172_16"/>
<feBlend mode="normal" in="SourceGraphic" in2="effect1_dropShadow_172_16" result="shape"/>
</filter>
<linearGradient id="paint0_linear_172_16" x1="1.78143" y1="45.843" x2="1.78143" y2="121.639" gradientUnits="userSpaceOnUse">
<stop stop-color="#A795D0"/>
<stop offset="1" stop-color="#5022B7"/>
</linearGradient>
<linearGradient id="paint1_linear_172_16" x1="9.73517" y1="37.9571" x2="9.73517" y2="113.753" gradientUnits="userSpaceOnUse">
<stop stop-color="#EDE6FF"/>
<stop offset="1" stop-color="#A795D0"/>
</linearGradient>
<linearGradient id="paint2_linear_172_16" x1="18.6588" y1="37.9555" x2="18.6588" y2="94.8266" gradientUnits="userSpaceOnUse">
<stop stop-color="#A795D0"/>
<stop offset="1" stop-color="#5619E2"/>
</linearGradient>
<linearGradient id="paint3_linear_172_16" x1="18.6434" y1="37.9555" x2="18.6434" y2="94.8266" gradientUnits="userSpaceOnUse">
<stop stop-color="#2E694B"/>
<stop offset="1" stop-color="#214E37"/>
</linearGradient>
<linearGradient id="paint4_linear_172_16" x1="17.0541" y1="39.5333" x2="17.0541" y2="96.4045" gradientUnits="userSpaceOnUse">
<stop stop-color="#C0A5FF"/>
<stop offset="1" stop-color="#A795D0"/>
</linearGradient>
<clipPath id="clip0_172_16">
<rect width="82.8088" height="83.696" fill="white" transform="matrix(-1 0 0 1 82.9044 0)"/>
</clipPath>
</defs>
</svg>
