<svg width="74" height="26" viewBox="0 0 74 26" fill="none" xmlns="http://www.w3.org/2000/svg">
<g clip-path="url(#clip0_173_88)">
<path d="M73.2198 0H0.809814V26H73.2198V0Z" fill="#DBD2EF"/>
<mask id="mask0_173_88" style="mask-type:luminance" maskUnits="userSpaceOnUse" x="5" y="5" width="64" height="16">
<path d="M68.8667 5.84998H5.35986V20.15H68.8667V5.84998Z" fill="white"/>
</mask>
<g mask="url(#mask0_173_88)">
<path fill-rule="evenodd" clip-rule="evenodd" d="M51.5773 13.0639C51.5773 15.3499 53.3093 17.3222 55.5923 17.3222H61.3268C63.6127 17.3222 65.3416 15.3499 65.3416 13.0639C65.3416 10.778 63.6098 8.80555 61.3268 8.80555H55.5923C53.3063 8.80555 51.5773 10.778 51.5773 13.0639ZM61.8382 5.84998C65.7191 5.84998 68.8664 9.11907 68.8664 13C68.8664 16.8809 65.7191 20.15 61.8382 20.15H55.1083C51.2274 20.15 48.08 16.8809 48.08 13C48.08 9.11907 51.2243 5.84998 55.1083 5.84998H61.8382Z" fill="#595678"/>
<path fill-rule="evenodd" clip-rule="evenodd" d="M27.6318 6.09338V19.9064H30.9983V14.2874H43.0033V19.9064H46.3514V6.09338H42.982V11.5023H30.977V6.09338H27.6318Z" fill="#595678"/>
<path fill-rule="evenodd" clip-rule="evenodd" d="M25.0536 5.97168H12.3881C8.5072 5.97168 5.35986 9.11902 5.35986 12.9999C5.35986 16.8808 8.5072 20.0281 12.3881 20.0281H25.6015V16.5856L22.1589 12.8477H17.9796L22.3263 17.0117H12.7625C10.4492 17.0117 8.87551 15.1976 8.87551 12.8843C8.87551 10.5709 10.4461 8.81768 12.7625 8.81768H25.0536V5.97168Z" fill="#595678"/>
</g>
</g>
<defs>
<clipPath id="clip0_173_88">
<rect width="72.41" height="26" fill="white" transform="translate(0.809814)"/>
</clipPath>
</defs>
</svg>
