<svg width="75" height="55" viewBox="0 0 75 55" fill="none" xmlns="http://www.w3.org/2000/svg">
<path fill-rule="evenodd" clip-rule="evenodd" d="M37.5 1C35.75 1 34.375 2.25 34.375 3.84091V5.54545H40.625V3.84091C40.625 2.25 39.25 1 37.5 1Z" stroke="#13E5B6" stroke-width="1.17188"/>
<path d="M42.5 5.54547H32.5V13.5H42.5V5.54547Z" stroke="#13E5B6" stroke-width="1.17188"/>
<path d="M37.5 10.2045C38.1904 10.2045 38.75 9.64488 38.75 8.95453C38.75 8.26417 38.1904 7.70453 37.5 7.70453C36.8096 7.70453 36.25 8.26417 36.25 8.95453C36.25 9.64488 36.8096 10.2045 37.5 10.2045Z" stroke="#13E5B6" stroke-width="1.17188"/>
<path d="M17.75 27.5V22.25H19.88C20.42 22.25 20.8475 22.3975 21.1625 22.6925C21.4775 22.9825 21.635 23.3675 21.635 23.8475C21.635 24.3275 21.4775 24.715 21.1625 25.01C20.8475 25.305 20.4175 25.4525 19.8725 25.4525H18.5V27.5H17.75ZM18.5 24.8H19.7375C20.0925 24.8 20.365 24.7125 20.555 24.5375C20.745 24.3625 20.84 24.1325 20.84 23.8475C20.84 23.5675 20.745 23.3475 20.555 23.1875C20.365 23.0225 20.0925 22.94 19.7375 22.94H18.5V24.8ZM22.5493 27.0425C22.2093 26.6675 22.0393 26.2 22.0393 25.64C22.0393 25.08 22.2068 24.6125 22.5418 24.2375C22.8768 23.8625 23.2993 23.675 23.8093 23.675C24.3193 23.675 24.7393 23.8625 25.0693 24.2375C25.4043 24.6125 25.5718 25.08 25.5718 25.64C25.5718 26.2 25.4043 26.6675 25.0693 27.0425C24.7343 27.4175 24.3143 27.605 23.8093 27.605C23.3093 27.605 22.8893 27.4175 22.5493 27.0425ZM24.8443 25.655C24.8443 25.21 24.7493 24.87 24.5593 24.635C24.3743 24.4 24.1243 24.2825 23.8093 24.2825C23.4893 24.2825 23.2368 24.4 23.0518 24.635C22.8668 24.87 22.7743 25.21 22.7743 25.655C22.7743 26.09 22.8643 26.4225 23.0443 26.6525C23.2293 26.8825 23.4843 26.9975 23.8093 26.9975C24.1293 26.9975 24.3818 26.8825 24.5668 26.6525C24.7518 26.4175 24.8443 26.085 24.8443 25.655ZM27.2864 27.5L26.0714 23.78H26.8064L27.3314 25.5125L27.7064 26.75L28.0664 25.55L28.6064 23.78H29.4314L30.0164 25.715C30.1214 26.085 30.2239 26.4275 30.3239 26.7425L30.7139 25.49L31.2464 23.78H31.9889L30.7364 27.5H29.9039L29.3564 25.7075L29.1314 24.9575C29.1014 24.8825 29.0589 24.7475 29.0039 24.5525C28.9339 24.7475 28.8139 25.13 28.6439 25.7L28.0889 27.5H27.2864ZM32.4767 25.655C32.4767 25.06 32.6342 24.5825 32.9492 24.2225C33.2642 23.8575 33.6692 23.675 34.1642 23.675C34.6592 23.675 35.0592 23.8475 35.3642 24.1925C35.6692 24.5375 35.8217 24.9775 35.8217 25.5125C35.8217 25.6075 35.8142 25.71 35.7992 25.82H33.1817C33.1967 26.22 33.2967 26.52 33.4817 26.72C33.6717 26.915 33.9142 27.0125 34.2092 27.0125C34.6542 27.0125 34.9792 26.775 35.1842 26.3L35.8292 26.5325C35.6992 26.8775 35.4917 27.1425 35.2067 27.3275C34.9267 27.5125 34.5892 27.605 34.1942 27.605C33.6692 27.605 33.2517 27.435 32.9417 27.095C32.6317 26.75 32.4767 26.27 32.4767 25.655ZM33.1967 25.2575H35.0867C35.0817 24.9425 34.9917 24.695 34.8167 24.515C34.6417 24.33 34.4242 24.2375 34.1642 24.2375C33.9092 24.2375 33.6917 24.33 33.5117 24.515C33.3317 24.7 33.2267 24.9475 33.1967 25.2575ZM36.7898 27.5V23.78H37.4798V24.5675C37.5798 24.3475 37.7323 24.1525 37.9373 23.9825C38.1473 23.8125 38.4073 23.7275 38.7173 23.7275C38.8373 23.7275 38.9523 23.74 39.0623 23.765V24.4925C38.9023 24.4675 38.7698 24.455 38.6648 24.455C37.8848 24.455 37.4948 24.9125 37.4948 25.8275V27.5H36.7898ZM39.4054 25.655C39.4054 25.06 39.5629 24.5825 39.8779 24.2225C40.1929 23.8575 40.5979 23.675 41.0929 23.675C41.5879 23.675 41.9879 23.8475 42.2929 24.1925C42.5979 24.5375 42.7504 24.9775 42.7504 25.5125C42.7504 25.6075 42.7429 25.71 42.7279 25.82H40.1104C40.1254 26.22 40.2254 26.52 40.4104 26.72C40.6004 26.915 40.8429 27.0125 41.1379 27.0125C41.5829 27.0125 41.9079 26.775 42.1129 26.3L42.7579 26.5325C42.6279 26.8775 42.4204 27.1425 42.1354 27.3275C41.8554 27.5125 41.5179 27.605 41.1229 27.605C40.5979 27.605 40.1804 27.435 39.8704 27.095C39.5604 26.75 39.4054 26.27 39.4054 25.655ZM40.1254 25.2575H42.0154C42.0104 24.9425 41.9204 24.695 41.7454 24.515C41.5704 24.33 41.3529 24.2375 41.0929 24.2375C40.8379 24.2375 40.6204 24.33 40.4404 24.515C40.2604 24.7 40.1554 24.9475 40.1254 25.2575ZM43.441 25.64C43.441 25.05 43.5835 24.575 43.8685 24.215C44.1535 23.855 44.521 23.675 44.971 23.675C45.506 23.675 45.901 23.9 46.156 24.35V23.63V22.25H46.861V27.5H46.171V26.9375C45.916 27.3825 45.516 27.605 44.971 27.605C44.521 27.605 44.1535 27.4275 43.8685 27.0725C43.5835 26.7175 43.441 26.24 43.441 25.64ZM46.1935 25.6475C46.1935 25.2125 46.0985 24.875 45.9085 24.635C45.7235 24.395 45.476 24.275 45.166 24.275C44.506 24.275 44.176 24.7325 44.176 25.6475C44.176 26.5525 44.506 27.005 45.166 27.005C45.481 27.005 45.731 26.89 45.916 26.66C46.101 26.425 46.1935 26.0875 46.1935 25.6475ZM50.6852 26.9375V27.5H50.0027V22.25H50.7077V23.63V24.3425C50.9627 23.8975 51.3577 23.675 51.8927 23.675C52.3427 23.675 52.7077 23.855 52.9877 24.215C53.2727 24.57 53.4152 25.0425 53.4152 25.6325C53.4152 26.2275 53.2727 26.705 52.9877 27.065C52.7027 27.425 52.3352 27.605 51.8852 27.605C51.3502 27.605 50.9502 27.3825 50.6852 26.9375ZM52.6877 25.6325C52.6877 24.7275 52.3552 24.275 51.6902 24.275C51.3802 24.275 51.1302 24.3925 50.9402 24.6275C50.7552 24.8575 50.6627 25.1925 50.6627 25.6325C50.6627 26.0725 50.7552 26.4125 50.9402 26.6525C51.1302 26.8875 51.3802 27.005 51.6902 27.005C52.3552 27.005 52.6877 26.5475 52.6877 25.6325ZM56.6406 23.78H57.3831L55.9281 28.025C55.7981 28.385 55.6506 28.63 55.4856 28.76C55.3256 28.895 55.0806 28.9625 54.7506 28.9625H53.9781V28.3325H54.7281C54.8681 28.3325 54.9756 28.3075 55.0506 28.2575C55.1306 28.2075 55.1931 28.1175 55.2381 27.9875L55.4256 27.455L53.7831 23.78H54.5706L55.3356 25.625L55.7256 26.5625C55.7456 26.4925 55.8381 26.2075 56.0031 25.7075L56.6406 23.78Z" fill="#636363"/>
<path d="M0.529773 47.2315C0.529773 44.8581 1.26439 42.9439 2.73363 41.4888C4.21699 40.0195 6.30783 39.2849 9.00614 39.2849C11.21 39.2849 12.9477 39.7087 14.2191 40.5564C15.5047 41.3899 16.3453 42.4141 16.7408 43.6291L11.1676 45.4727C10.772 44.173 9.98092 43.5231 8.79423 43.5231C8.03136 43.5231 7.42388 43.8622 6.97181 44.5403C6.53387 45.2184 6.31489 46.1578 6.31489 47.3587C6.31489 49.9581 7.18372 51.2578 8.92138 51.2578C9.48647 51.2578 9.97386 51.1236 10.3835 50.8552C10.7932 50.5867 11.0687 50.2053 11.21 49.7109H8.47637V46.2144H16.5925V54.5H11.7186V52.9107C10.7297 54.2245 9.2463 54.8814 7.26848 54.8814C5.2059 54.8814 3.56714 54.2316 2.35219 52.9319C1.13725 51.6322 0.529773 49.732 0.529773 47.2315ZM18.4831 54.5V39.6664H24.0987V44.8158H27.574V39.6664H33.1896V54.5H27.574V49.0539H24.0987V54.5H18.4831ZM34.7162 47.1891C34.7162 46.0872 34.8786 45.0771 35.2036 44.1588C35.5426 43.2264 36.0441 42.3929 36.7081 41.6583C37.3862 40.9096 38.2833 40.3303 39.3994 39.9206C40.5296 39.4968 41.8293 39.2849 43.2985 39.2849C44.7677 39.2849 46.0604 39.4968 47.1764 39.9206C48.3066 40.3303 49.2037 40.9096 49.8677 41.6583C50.5458 42.3929 51.0473 43.2264 51.3722 44.1588C51.7113 45.0771 51.8808 46.0872 51.8808 47.1891C51.8808 48.2769 51.7113 49.2729 51.3722 50.1771C51.0473 51.0812 50.5458 51.8935 49.8677 52.614C49.2037 53.3204 48.3066 53.8784 47.1764 54.2881C46.0604 54.6837 44.7677 54.8814 43.2985 54.8814C41.8293 54.8814 40.5296 54.6837 39.3994 54.2881C38.2833 53.8784 37.3862 53.3204 36.7081 52.614C36.0441 51.8935 35.5426 51.0812 35.2036 50.1771C34.8786 49.2729 34.7162 48.2769 34.7162 47.1891ZM45.9474 47.1891C45.9474 46.0307 45.7213 45.1336 45.2693 44.4979C44.8172 43.848 44.1603 43.5231 43.2985 43.5231C42.4509 43.5231 41.794 43.848 41.3278 44.4979C40.8757 45.1477 40.6496 46.0448 40.6496 47.1891C40.6496 49.4919 41.5326 50.6433 43.2985 50.6433C45.0644 50.6433 45.9474 49.4919 45.9474 47.1891ZM53.415 54.5V39.6664H59.0306V54.5H53.415ZM64.5472 54.5V43.4807H60.309V39.6664H74.401V43.4807H70.1628V54.5H64.5472Z" fill="#0B978E"/>
</svg>
